<svg xmlns="http://www.w3.org/2000/svg" xml:space="preserve" viewBox="0 0 64 64"><title>Bahamas Local</title><path d="M27.1 9c.6-1.7 2.1-5.7 5.4-9 3.3 3.2 4.9 7.3 5.4 9-1.7-.4-3.6-.6-5.4-.6-1.9 0-3.7.2-5.4.6zm-15 10.5C11.3 18 9.5 14 9.5 9.4c4.6 0 8.7 1.8 10.3 2.6-1.5.9-3 2-4.3 3.3-1.3 1.3-2.4 2.7-3.4 4.2zm-3 17.9c-1.7-.5-5.8-2.1-9.1-5.3 3.3-3.2 7.4-4.8 9.1-5.3-.4 1.7-.6 3.5-.6 5.3 0 1.8.2 3.6.6 5.3zm10.7 14.8c-1.6.8-5.6 2.6-10.3 2.6 0-4.6 1.8-8.6 2.6-10.1.9 1.5 2.1 2.9 3.4 4.2 1.3 1.3 2.8 2.4 4.3 3.3zm18.1 3c-.6 1.7-2.1 5.7-5.4 9-3.3-3.2-4.9-7.3-5.4-9 1.7.4 3.6.6 5.4.6 1.9 0 3.7-.2 5.4-.6zm18-28.5c1.7.5 5.8 2.1 9.1 5.3-3.3 3.2-7.4 4.8-9.1 5.3.4-1.7.6-3.5.6-5.3 0-1.7-.2-3.5-.6-5.3zM45.2 12c1.6-.8 5.6-2.6 10.3-2.6 0 4.6-1.8 8.6-2.6 10.1-.9-1.5-2.1-2.9-3.4-4.2-1.3-1.3-2.8-2.4-4.3-3.3zM16.4 30.5c.7-7.5 6.7-13.5 14.3-14.2.6-.1 1.1-.6 1-1.3-.1-.6-.6-1.1-1.3-1-8.7.9-15.6 7.8-16.4 16.4-.1.6.4 1.2 1.1 1.3.7-.1 1.2-.5 1.3-1.2zM30.9 47.8c-7.6-.7-13.7-6.6-14.5-14.1-.1-.6-.6-1.1-1.3-1-.6.1-1.1.6-1 1.3.9 8.6 7.8 15.4 16.6 16.2.6.1 1.2-.4 1.3-1 0-.8-.5-1.4-1.1-1.4zM33.9 16.2c7.6.7 13.7 6.6 14.5 14.1.1.6.6 1.1 1.3 1 .6-.1 1.1-.6 1-1.3-.9-8.6-7.9-15.4-16.6-16.2-.6-.1-1.2.4-1.3 1-.1.8.4 1.4 1.1 1.4z" class="st0"/><path d="M32.4 18.3c-7.6 0-13.9 6.1-13.9 13.7 0 7.5 6.2 13.7 13.9 13.7 7.6 0 13.9-6.1 13.9-13.7-.1-7.5-6.3-13.7-13.9-13.7zm3.3 21.9c-.8.3-1.4.5-1.9.7-.5.2-1 .2-1.7.2-1 0-1.7-.2-2.3-.7-.5-.5-.8-1.1-.8-1.8 0-.3 0-.6.1-.9 0-.3.1-.6.2-1l1-3.5c.1-.3.2-.7.2-1 .1-.3.1-.6.1-.8 0-.4-.1-.8-.3-.9-.2-.2-.5-.3-1.1-.3-.3 0-.5 0-.8.1-.3.1-.5.2-.7.2l.3-1.1c.7-.3 1.3-.5 1.9-.7.6-.2 1.2-.3 1.7-.3 1 0 1.7.2 2.2.7.5.5.8 1.1.8 1.8 0 .2 0 .4-.1.8 0 .4-.1.7-.2 1.1l-1 3.5c-.1.3-.2.6-.2 1-.1.4-.1.6-.1.8 0 .5.1.8.3.9.2.2.6.3 1.1.3.2 0 .5 0 .8-.1.3-.1.5-.2.7-.2l-.2 1.2zm-.1-13.8c-.5.4-1 .6-1.7.6s-1.2-.2-1.7-.6c-.5-.4-.7-.9-.7-1.6 0-.6.2-1.1.7-1.6.5-.4 1-.6 1.7-.6s1.2.2 1.7.6c.5.4.7 1 .7 1.6 0 .7-.3 1.2-.7 1.6z" class="st0"/><path d="m57 50.6-9.1-8.9c1.5-2.4 2.5-5.1 2.8-8 .1-.6-.4-1.2-1.1-1.3-.6-.1-1.2.4-1.3 1A15.8 15.8 0 0 1 34 47.7c-.6.1-1.1.6-1 1.3.1.6.6 1.1 1.3 1 2.9-.3 5.6-1.3 8-2.8l9.1 8.9c1.6 1.5 4.1 1.5 5.7 0 1.5-1.5 1.4-4-.1-5.5zm-3.5.7c-.4.4-1.1.4-1.5 0l-5.6-5.5c-.4-.4-.4-1.1 0-1.5.4-.4 1.1-.4 1.5 0l5.6 5.5c.4.4.4 1.1 0 1.5z"/></svg>