<?xml version="1.0" encoding="utf-8"?>
<!-- Generator: Adobe Illustrator 26.3.1, SVG Export Plug-In . SVG Version: 6.00 Build 0)  -->
<svg version="1.1" id="Layer_1" xmlns="http://www.w3.org/2000/svg" xmlns:xlink="http://www.w3.org/1999/xlink" x="0px" y="0px"
	 viewBox="0 0 512 512" style="enable-background:new 0 0 512 512;" xml:space="preserve">
<style type="text/css">
	.st0{fill:#166173;}
</style>
<path class="st0" d="M413.3,236.9L512,283c-16.1-49.3-29-78-48.4-126.3L413.3,236.9L413.3,236.9z"/>
<polygon class="st0" points="87.3,162.2 156.6,199.6 174.6,176 123.2,78.7 "/>
<path class="st0" d="M384.7,0H281.7l-12.8,68.6l94.6-16.7C370.8,34.8,378.5,17.4,384.7,0z"/>
<polygon class="st0" points="154.4,467.7 128.7,512 238.8,512 231.8,435.1 "/>
<polygon class="st0" points="146,243.5 152.2,212.3 65.7,168.4 88.4,239.1 "/>
<polygon class="st0" points="456.6,112.5 393.5,15.2 348.8,108.9 "/>
<polygon class="st0" points="53.9,395.9 121.4,512 154.4,412.6 "/>
<polygon class="st0" points="43.6,138.3 0,125.2 0,221 78.9,251.5 "/>
<polygon class="st0" points="417.4,352.7 351,325.9 329.7,349.1 393.9,455.4 "/>
<polygon class="st0" points="78.9,258 0,230.8 43.6,351.6 "/>
<polygon class="st0" points="266.3,0 129.5,0 251.6,78.7 "/>
<polygon class="st0" points="461.8,358.1 512,380.3 512,289.6 432.8,292.8 "/>
<polygon class="st0" points="185.9,350.2 165.4,333.5 70.1,387.9 167.6,399.5 "/>
<polygon class="st0" points="347.7,121.2 332.7,163.3 348.1,183.6 437.5,128.1 "/>
<polygon class="st0" points="83.3,148 113.7,57 33.4,116.8 "/>
<polygon class="st0" points="414.1,438.3 512,386.4 429.5,366.1 "/>
<polygon class="st0" points="227.4,423.8 218.6,367.9 191.8,354.5 154.4,450.7 "/>
<polygon class="st0" points="282.8,434.3 250.9,512 378.1,461.9 "/>
<polygon class="st0" points="382.9,455.4 322.4,353.4 300,367.6 321.3,436.2 "/>
<polygon class="st0" points="131.3,69.7 180.8,168 205.8,148 165.8,64.2 "/>
<polygon class="st0" points="308.8,74.7 300,143 320.9,154.9 356.9,62 "/>
<polygon class="st0" points="423.6,292.8 365.7,288.1 352.8,319.3 451.1,354.5 "/>
<polygon class="st0" points="125.8,342.5 85.5,281.2 53.9,382.1 "/>
<polygon class="st0" points="0,0 0,115.4 60.1,75.5 "/>
<polygon class="st0" points="0,512 114.8,512 78.1,463 "/>
<polygon class="st0" points="512,500 512,394.1 453.3,430 "/>
<polygon class="st0" points="506.9,0 399.4,0 431.7,53 "/>
<polygon class="st0" points="0,252.9 0,396.6 41.8,391.5 "/>
<polygon class="st0" points="398.3,252.2 375.9,281.9 494.8,284.8 "/>
<polygon class="st0" points="385.1,255.5 356.9,233.3 324.6,233.3 360.9,275.8 "/>
<polygon class="st0" points="512,248.6 512,146.6 469.1,136.1 "/>
<polygon class="st0" points="384,172.4 403.4,225.7 455.9,132.8 "/>
<polygon class="st0" points="71.2,66.4 114.8,45 37.8,27.2 "/>
<polygon class="st0" points="75.6,448.1 47.3,411.8 10.6,493.9 "/>
<polygon class="st0" points="505.8,15.2 438.3,64.6 464,104.1 "/>
<polygon class="st0" points="161.7,320 149.3,292.5 101.6,278 129.5,339.6 "/>
<polygon class="st0" points="466.2,119 512,139.3 512,47.5 "/>
<polygon class="st0" points="248.3,140.4 283.1,140.4 296,78.4 238.8,90 "/>
<polygon class="st0" points="269.2,512 393.9,512 389.5,468.1 "/>
<polygon class="st0" points="349.5,281.6 314.3,236.9 268.8,258 301.5,284.8 "/>
<polygon class="st0" points="401.2,460.8 501,501.1 445.2,434.3 "/>
<polygon class="st0" points="180.8,68.6 215.7,145.9 236.2,139.3 227.8,88.9 "/>
<polygon class="st0" points="235.5,394.8 246.1,499.3 274.7,434.7 "/>
<polygon class="st0" points="351.7,189.4 366,230.4 384.7,240.2 379.6,183.2 "/>
<polygon class="st0" points="202.1,62.4 121.4,6.9 126.2,43.9 "/>
<polygon class="st0" points="110.8,0 20.5,0 104.5,31.9 "/>
<polygon class="st0" points="0,401.3 0,491 35.6,408.2 "/>
<polygon class="st0" points="402.3,512 492.9,512 398.3,469.2 "/>
<polygon class="st0" points="251.6,260.9 214.9,236.9 215.3,277.6 235.1,308.4 "/>
<polygon class="st0" points="304,430.4 291.9,371.2 272.9,371.9 284.6,428.5 "/>
<polygon class="st0" points="260,251.1 281.7,242.8 266.6,215.2 "/>
<polygon class="st0" points="300,289.6 260,263.8 244.6,310.2 272.5,312.4 "/>
<polygon class="st0" points="216.4,230.1 253.4,255.5 256,198.1 231.8,205.7 "/>
<polygon class="st0" points="98.3,258.4 148.2,283 145.6,252.2 "/>
<polygon class="st0" points="266.3,372.7 233.3,369.8 270.3,410 "/>
<polygon class="st0" points="263.3,198.5 288.3,234.8 307,225.7 287.2,205.7 "/>
</svg>
