<svg xmlns="http://www.w3.org/2000/svg" xml:space="preserve" viewBox="0 0 1920.5 200.8"><path d="M1920.5 0H0v128c5.4-1.7 11.1-4 13.8-4.4 11.1 7.3 20.3 1.7 24.7 8.2-2.3 15.8 26.1 2.1 24.6.9 4.8 4.5 19.7 9.2 24.7 11 5.6-15.6 23.8 1.8 24.6-3.2-1.1 14.5 30.8-31.9 28.3-20.2 0 19.6 12.5 32.7 12.5 32.6 0 23.1 31.5-5.3 31.5-6.5 0 2.2 21.2 17.3 21.2 11.1 0 17.6 21.7 5.7 21.7 12.6 0 18.2 22.6 32.2 22.6 19.2 0 21.6 26.2 6.9 26.2 2.3 0 5.4 25.1 3.1 25.1-14.1 0-13.4 23.6-14.4 23.6-8.9 0 3.2 26.2 2.2 26.2 2.2 0 5.3 25.5 7.1 25.5-5.1 0-1.5 18.5-13.1 18.5-16.9 0-3.6 25.4-13.6 25.4-3.3 0-2.5 17 7 17-18.3 0 14.3 20.3-11.8 20.3-13 0-8.9 23 2.9 23-7.2 0 16.9 24.6-14.7 24.6-10.8 0-11 25.9 15.5 25.9 2.3 0-3.7 22.2 1.9 22.2 11.4 0 7.8 23.2 11.3 23.2 3.1 0-4.1 21.6.9 21.6 10.4 0-.3 23.2 22.4 23.2 9.4 0 5 24.7 11.6 24.7 10 0-4.4 23.2-18.6 23.2-18.2 0-15.3 26.6 18.8 26.6 14 0 5.4 24 5.7 24-5.9 0-6.2 21.4-22.8 21.4-16.1 0 2.8 25.5 6.8 25.5 1.9 0 .4 21.4-13.9 21.4-14.1 0 15.2 24.2-3.9 24.2-3.2 0 5.2 24.2-4.8 24.2-2.9 0-7.4 22.7-12 22.7-9.1 0-3.1 23.4-17.7 23.4-6.8 0-15.3 23.7-24.6 23.7-7.7 0-7.3 25.4 10.2 25.4 11.3 0-12.3 24.4-2 24.4-2.8 0 7.7 24.9-12.5 24.9-4.1 0 7.9 24.9 3.3 24.9.2 0 17 23.8 5.6 23.8 9.1 0-4.9 24.7-3.5 24.7 1.8 0-.7 25.6 1.5 25.6-2.9 0-2.9 22.4 13 22.4 15.2 0-5.7 26-5.7 26-5.3 0 7.5 25.1 12.8 25.1-1.1 0 9.6 23.5-5 23.5 8.9 0 2.6 24.5-3.5 24.5 1.6 0-4.1 23.2 22.6 23.2 16.8 0 9.3 24.8 7.5 24.8 7.1 0-5.1 25.1-7.5 25.1-12 0-4.1 24.4 3 24.4-4.3 0 .6 26.6 20.8 26.6 10.8 0-9.1 22.8-13.2 22.8-16.4 0-7.2 8.4-21.9 8.4-22.2 0 10.5 20.7-3.3 20.7-12.6 0-5.5 24.1-5.6 24.1-3.9 0-8 24.9-6.9 24.9-12.4 0-1.7 26.1-7.4 26.1-4 0-3.9 23.1 22.3 23.1 26 0 .8 27.1-8.5 27.1-12.4 0-9.4 22.6-3.8 22.6 18 0-10.6 28.1-26.1 28.1-12.7 0 .5 24.1-3.6 24.1 8.7 0 3.3 25.3 1.5 25.3 2 0-2.5 25.6-3.9 25.6-1.6 0-5.5 22.4 23.5 22.4 24.4 0 6.5 26.2-4.2 26.2-8.3 0-1.2 24.5 1.5 24.5 5.5 0-2.6 24.4-10.1 24.4-5.9 0-4.2 24.1 4.4 24.1-6.1 0-.8 22.4 9.6 25.5 13.5 1.6-2 24.1 2.9 24.6-3.4 7 3.1 23.5.9 24-6.3 2.1 12.1 23.6 1.5 24-8.1 3.7 1.6 26.9-15.5 24-8.8 9-11.9 36.1 5.4 25.7 15 3.1-2.1 15.7-4.9 22.2-6.7V0zM1897.7 93.5c.2-.2.4-.3.6-.5-.3.2-.5.4-.6.5z" fill="#fff"/></svg>