<?xml version="1.0" encoding="utf-8"?>
<!-- Generator: Adobe Illustrator 26.3.1, SVG Export Plug-In . SVG Version: 6.00 Build 0)  -->
<svg version="1.1" id="Layer_1" xmlns="http://www.w3.org/2000/svg" xmlns:xlink="http://www.w3.org/1999/xlink" x="0px" y="0px"
	 viewBox="0 0 24 35" style="enable-background:new 0 0 24 35;" xml:space="preserve">
<path d="M21.4,12l-0.9,0.5C21.4,12,21.4,12,21.4,12L21.4,12L21.4,12L21.4,12c0,0,0-0.1-0.1-0.1c0-0.1-0.1-0.2-0.1-0.3
	c-0.1-0.2-0.3-0.6-0.6-1c-0.5-0.8-1.2-1.9-2-3c-0.8-1.1-1.8-2.2-2.9-3.1C14.6,3.7,13.3,3,11.9,3C10.4,3,9.1,3.7,8,4.6
	C7,5.4,6,6.6,5.2,7.6c-0.8,1.1-1.4,2.2-1.9,3c-0.2,0.4-0.4,0.7-0.5,1c-0.1,0.1-0.1,0.2-0.1,0.3c0,0,0,0.1,0,0.1l0,0l0,0l0,0
	c0,0,0,0,1,0.4l-1-0.4l-0.1,0.2V35h19V12.2L21.4,12z M11.5,32.9H4.6V26h6.9V32.9z M11.5,25H4.6v-8h6.9V25z M11.5,16H4.6v-3.3
	c0,0,0-0.1,0.1-0.1c0.1-0.2,0.3-0.5,0.5-0.9c0.4-0.8,1-1.8,1.8-2.8C7,8.7,7.2,8.5,7.3,8.3C7.5,8.5,7.8,8.8,8,9
	c0.6,0.6,1.2,1.4,1.7,2.2c0.5,0.8,1,1.5,1.3,2c0.2,0.3,0.3,0.5,0.4,0.7c0,0.1,0.1,0.1,0.1,0.2V16z M12,13C11.9,12.9,11.9,12.9,12,13
	c-0.4-0.6-0.9-1.4-1.4-2.2C10,10,9.4,9.2,8.8,8.5C8.5,8.2,8.2,7.9,7.9,7.6c0.5-0.5,0.9-1,1.5-1.4c0.9-0.7,1.7-1.1,2.5-1.1
	c0.8,0,1.6,0.4,2.6,1.1c0.4,0.3,0.8,0.7,1.2,1.1c-0.4,0.3-0.7,0.7-1.1,1.2c-0.5,0.7-1,1.5-1.5,2.3C12.7,11.6,12.3,12.3,12,13
	C12,12.9,12,12.9,12,13z M19.4,32.9h-6.9V26h6.9V32.9z M19.4,25h-6.9v-8h6.9V25z M19.4,16h-6.9v-2.1l0-0.1c0.1-0.1,0.2-0.3,0.3-0.6
	c0.3-0.5,0.7-1.3,1.1-2c0.4-0.8,0.9-1.5,1.4-2.2c0.4-0.5,0.7-0.9,1-1.1c0.3,0.3,0.5,0.6,0.7,0.9c0.8,1,1.4,2,1.8,2.8
	c0.2,0.4,0.4,0.7,0.5,0.9c0,0,0,0.1,0.1,0.1V16z"/>
</svg>
