<svg xmlns="http://www.w3.org/2000/svg" width="24" height="35" viewBox="0 0 24 35" fill="none"><path fill-rule="evenodd" clip-rule="evenodd" d="M20 17H3V16H20V17Z" fill="currentColor"></path><path fill-rule="evenodd" clip-rule="evenodd" d="M11.8432 14.0813C11.8622 14.0418 11.8875 13.9894 11.9187 13.9256C11.995 13.7693 12.1061 13.5446 12.2447 13.2721C12.5221 12.7265 12.9089 11.9911 13.347 11.2294C13.786 10.4661 14.2721 9.68441 14.748 9.04278C15.2368 8.38375 15.672 7.93272 16 7.76011L15.612 7C15.0988 7.27008 14.5655 7.86574 14.0745 8.52773C13.5706 9.20713 13.0657 10.0208 12.6189 10.7976C12.1712 11.5759 11.7773 12.3251 11.4955 12.8792C11.3545 13.1565 11.2413 13.3854 11.1633 13.5453C11.1242 13.6252 11.094 13.688 11.0734 13.7309L11.0498 13.7801L11.0437 13.7929L11.0417 13.7972C11.0417 13.7973 11.0415 13.7976 11.4216 13.9828L11.0415 13.7976L11 13.8854V34H11.8432V14.0813Z" fill="currentColor"></path><path fill-rule="evenodd" clip-rule="evenodd" d="M11.9501 13.7975C11.9502 13.7976 11.9502 13.7976 11.4941 13.9828L11.9501 13.7975L12 13.8854V34H10.9882V14.0813C10.9654 14.0418 10.935 13.9894 10.8976 13.9256C10.806 13.7693 10.6727 13.5446 10.5064 13.2721C10.1735 12.7265 9.70936 11.9911 9.18361 11.2294C8.65679 10.4661 8.07345 9.68441 7.50239 9.04278C6.91583 8.38375 6.39355 7.93272 6 7.76011L6.46562 7C7.08139 7.27008 7.72142 7.86574 8.31061 8.52773C8.91529 9.20713 9.52111 10.0208 10.0573 10.7976C10.5945 11.5759 11.0673 12.3251 11.4054 12.8792C11.5746 13.1565 11.7104 13.3854 11.8041 13.5453C11.8509 13.6252 11.8872 13.688 11.912 13.7309L11.9402 13.7801L11.9475 13.7929L11.9501 13.7975Z" fill="currentColor"></path><path fill-rule="evenodd" clip-rule="evenodd" d="M20 26H3V25H20V26Z" fill="currentColor"></path><path fill-rule="evenodd" clip-rule="evenodd" d="M20.8901 11.9743C20.8902 11.9746 20.8903 11.9748 19.9503 12.4428L20.8903 11.9748L21 12.1959V35H2V12.209L2.09889 11.9972L3.04972 12.4428C2.09889 11.9972 2.09899 11.997 2.09912 11.9967L2.10036 11.9941L2.10326 11.9879L2.11332 11.9667C2.12191 11.9486 2.13425 11.9228 2.15023 11.8898C2.18218 11.8239 2.22874 11.7291 2.28907 11.6095C2.40966 11.3705 2.58566 11.0318 2.81045 10.6264C3.25875 9.81795 3.90725 8.73316 4.70356 7.64116C5.49556 6.55507 6.45942 5.42616 7.54596 4.55704C8.62362 3.69504 9.91801 3.01246 11.3503 3.00017C12.7866 2.98783 14.1023 3.66072 15.2043 4.51534C16.3169 5.37824 17.3164 6.50715 18.1436 7.5964C18.9752 8.69153 19.6592 9.78207 20.1341 10.5955C20.3722 11.0034 20.5593 11.3443 20.6877 11.5849C20.7519 11.7053 20.8016 11.8007 20.8356 11.867C20.8527 11.9002 20.8658 11.9261 20.875 11.9442L20.8857 11.9655L20.8888 11.9717L20.8901 11.9743ZM4.09945 12.6848V32.897H18.9006V12.6979C18.8815 12.6616 18.86 12.621 18.8362 12.5764C18.7187 12.3562 18.5446 12.0389 18.3218 11.6571C17.8747 10.8914 17.2376 9.87703 16.4727 8.86964C15.7032 7.85637 14.8305 6.88513 13.919 6.17825C12.9969 5.46308 12.1365 5.09653 11.3683 5.10313C10.5962 5.10976 9.74973 5.48554 8.856 6.20042C7.97116 6.9082 7.13317 7.8747 6.39887 8.88166C5.66888 9.88272 5.06664 10.8886 4.64576 11.6476C4.43597 12.0259 4.27277 12.3401 4.16282 12.5581C4.1392 12.6049 4.11805 12.6472 4.09945 12.6848Z" fill="currentColor"></path></svg>