<svg xmlns="http://www.w3.org/2000/svg" width="18" height="28" viewBox="0 0 18 28" fill="none"><g clip-path="url(#clip0_1406_261)"><path fill-rule="evenodd" clip-rule="evenodd" d="M1.87785 1.83068C1.87707 1.83246 1.87617 1.83511 1.87617 1.84029V26.1597C1.87617 26.1649 1.87707 26.1675 1.87785 26.1693C1.87889 26.1717 1.88081 26.1747 1.88387 26.1777C1.88692 26.1806 1.89004 26.1825 1.8925 26.1835C1.89434 26.1842 1.89708 26.1851 1.90244 26.1851H16.0976C16.1029 26.1851 16.1057 26.1842 16.1075 26.1835C16.1088 26.183 16.1102 26.1822 16.1117 26.1812C16.1131 26.1803 16.1146 26.1791 16.1161 26.1777C16.1192 26.1747 16.1211 26.1717 16.1221 26.1693C16.1229 26.1675 16.1238 26.1649 16.1238 26.1597V1.84029C16.1238 1.83511 16.1229 1.83246 16.1221 1.83068C16.1211 1.8283 16.1192 1.82528 16.1161 1.82232C16.1131 1.81937 16.11 1.81751 16.1075 1.81651C16.1057 1.81575 16.1029 1.81488 16.0976 1.81488H1.90244C1.89708 1.81488 1.89434 1.81575 1.8925 1.81651C1.89004 1.81751 1.88692 1.81937 1.88387 1.82232C1.88081 1.82528 1.87889 1.8283 1.87785 1.83068ZM0 1.84029C0 0.823926 0.851751 0 1.90244 0H16.0976C17.1482 0 18 0.823926 18 1.84029V26.1597C18 27.1761 17.1482 28 16.0976 28H1.90244C0.851751 28 0 27.1761 0 26.1597V1.84029Z" fill="currentColor"></path><path fill-rule="evenodd" clip-rule="evenodd" d="M16.4053 5.30853H1.57227V4.57169H16.4053V5.30853Z" fill="currentColor"></path><path fill-rule="evenodd" clip-rule="evenodd" d="M16.4053 12.8584H1.57227V12.1216H16.4053V12.8584Z" fill="currentColor"></path><path fill-rule="evenodd" clip-rule="evenodd" d="M16.4053 16.3938H1.57227V15.657H16.4053V16.3938Z" fill="currentColor"></path><path fill-rule="evenodd" clip-rule="evenodd" d="M16.4053 24.0272H1.57227V23.2904H16.4053V24.0272Z" fill="currentColor"></path><path d="M10.5779 11.2595H8.14258V11.8221H10.5779V11.2595Z" fill="currentColor"></path></g><defs><clipPath id="clip0_1406_261"><rect width="18" height="28" fill="white"></rect></clipPath></defs></svg>