<svg xmlns="http://www.w3.org/2000/svg" width="30" height="31" viewBox="0 0 30 31" fill="none"><path fill-rule="evenodd" clip-rule="evenodd" d="M2.29324 1.96252C2.10737 1.96252 1.95669 2.11365 1.95669 2.30008V28.6999C1.95669 28.8864 2.10737 29.0375 2.29324 29.0375H27.7068C27.8926 29.0375 28.0433 28.8864 28.0433 28.6999V2.30008C28.0433 2.11365 27.8926 1.96252 27.7068 1.96252H2.29324ZM0 2.30008C0 1.02978 1.02672 0 2.29324 0H27.7068C28.9733 0 30 1.02978 30 2.30008V28.6999C30 29.9702 28.9733 31 27.7068 31H2.29324C1.02672 31 0 29.9702 0 28.6999V2.30008Z" fill="currentColor"></path><path fill-rule="evenodd" clip-rule="evenodd" d="M15 2H28V30H15V2ZM16.069 3.16501V28.835H26.931V3.16501H16.069Z" fill="currentColor"></path></svg>