<?xml version="1.0" encoding="utf-8"?>
<!-- Generator: Adobe Illustrator 26.3.1, SVG Export Plug-In . SVG Version: 6.00 Build 0)  -->
<svg version="1.1" id="Layer_1" xmlns="http://www.w3.org/2000/svg" xmlns:xlink="http://www.w3.org/1999/xlink" x="0px" y="0px"
	 viewBox="0 0 18 29" style="enable-background:new 0 0 18 29;" xml:space="preserve">
<style type="text/css">
	.st0{fill:none;}
</style>
<path class="st0" d="M16.1,1.9C16.1,1.9,16.1,1.9,16.1,1.9C16.1,1.9,16.1,1.9,16.1,1.9l-14.2,0c0,0,0,0,0,0c0,0,0,0,0,0s0,0,0,0
	c0,0,0,0,0,0v25.2c0,0,0,0,0,0c0,0,0,0,0,0s0,0,0,0c0,0,0,0,0,0h14.2c0,0,0,0,0,0c0,0,0,0,0,0c0,0,0,0,0,0c0,0,0,0,0,0c0,0,0,0,0,0
	L16.1,1.9C16.1,1.9,16.1,1.9,16.1,1.9C16.1,1.9,16.1,1.9,16.1,1.9z M16,22H2v-1h14V22z M16,14H2v-1h14V14z M16,10H2V9h6V8h2v1h6V10z
	"/>
<path d="M16.1,0H1.9C0.9,0,0,0.9,0,1.9v25.2C0,28.1,0.9,29,1.9,29h14.2c1.1,0,1.9-0.9,1.9-1.9V1.9C18,0.9,17.1,0,16.1,0z M16.1,27.1
	C16.1,27.1,16.1,27.1,16.1,27.1C16.1,27.1,16.1,27.1,16.1,27.1C16.1,27.1,16.1,27.1,16.1,27.1C16.1,27.1,16.1,27.1,16.1,27.1
	C16.1,27.1,16.1,27.1,16.1,27.1l-14.2,0c0,0,0,0,0,0c0,0,0,0,0,0s0,0,0,0c0,0,0,0,0,0V1.9c0,0,0,0,0,0c0,0,0,0,0,0s0,0,0,0
	c0,0,0,0,0,0h14.2c0,0,0,0,0,0c0,0,0,0,0,0c0,0,0,0,0,0c0,0,0,0,0,0V27.1z"/>
<polygon points="8,9 2,9 2,10 16,10 16,9 10,9 "/>
<rect x="2" y="21" width="14" height="1"/>
<rect x="2" y="13" width="14" height="1"/>
<rect x="8" y="8" width="2" height="1"/>
</svg>
