<svg xmlns="http://www.w3.org/2000/svg" width="24" height="29" viewBox="0 0 24 29" fill="none"><path fill-rule="evenodd" clip-rule="evenodd" d="M1.99431 1.77746C1.87454 1.77746 1.77746 1.87454 1.77746 1.99431V26.0824C1.77746 26.2022 1.87454 26.2993 1.99431 26.2993H21.6388C21.7585 26.2993 21.8556 26.2022 21.8556 26.0824V1.99431C21.8556 1.87454 21.7585 1.77746 21.6388 1.77746H1.99431ZM0 1.99431C0 0.892882 0.892882 0 1.99431 0H21.6388C22.7402 0 23.6331 0.892882 23.6331 1.99431V26.0824C23.6331 27.1838 22.7402 28.0767 21.6388 28.0767H1.99431C0.892882 28.0767 0 27.1838 0 26.0824V1.99431Z" fill="currentColor"></path><path fill-rule="evenodd" clip-rule="evenodd" d="M7.18982 27.188V1.19086H7.91858V27.188H7.18982Z" fill="currentColor"></path><path fill-rule="evenodd" clip-rule="evenodd" d="M11.4521 27.188V1.19086H12.1809V27.188H11.4521Z" fill="currentColor"></path><path fill-rule="evenodd" clip-rule="evenodd" d="M18.1638 27.188V1.19086H18.8926V27.188H18.1638Z" fill="currentColor"></path></svg>