<svg xmlns="http://www.w3.org/2000/svg" width="28" height="31" viewBox="0 0 28 31" fill="none"><path fill-rule="evenodd" clip-rule="evenodd" d="M2.29793 1.96252C2.146 1.96252 2.02283 2.08202 2.02283 2.22942V28.7706C2.02283 28.918 2.146 29.0375 2.29793 29.0375H25.7021C25.854 29.0375 25.9772 28.918 25.9772 28.7706V2.22942C25.9772 2.08202 25.854 1.96252 25.7021 1.96252H2.29793ZM0 2.22942C0 0.998148 1.02882 0 2.29793 0H25.7021C26.9712 0 28 0.998147 28 2.22942V28.7706C28 30.0019 26.9712 31 25.7021 31H2.29793C1.02882 31 0 30.0019 0 28.7706V2.22942Z" fill="currentColor"></path><path fill-rule="evenodd" clip-rule="evenodd" d="M24 3V28L15 27.2243V4.70818L24 3ZM15.7321 5.35858V26.5078L23.2679 27.1573V3.92832L15.7321 5.35858Z" fill="currentColor"></path><path fill-rule="evenodd" clip-rule="evenodd" d="M3 3L13 4.70818V27.2243L3 28V3ZM3.81349 3.92832V27.1573L12.1865 26.5078V5.35858L3.81349 3.92832Z" fill="currentColor"></path></svg>