<svg xmlns="http://www.w3.org/2000/svg" xml:space="preserve" viewBox="0 0 512 512"><path fill="#fff" d="M413.3 236.9 512 283c-16.1-49.3-29-78-48.4-126.3l-50.3 80.2zm-326-74.7 69.3 37.4 18-23.6-51.4-97.3zM384.7 0h-103l-12.8 68.6 94.6-16.7c7.3-17.1 15-34.5 21.2-51.9zM154.4 467.7 128.7 512h110.1l-7-76.9zM146 243.5l6.2-31.2-86.5-43.9 22.7 70.7zm310.6-131-63.1-97.3-44.7 93.7zM53.9 395.9 121.4 512l33-99.4zM43.6 138.3 0 125.2V221l78.9 30.5zm373.8 214.4L351 325.9l-21.3 23.2 64.2 106.3zM78.9 258 0 230.8l43.6 120.8zM266.3 0H129.5l122.1 78.7zm195.5 358.1 50.2 22.2v-90.7l-79.2 3.2zm-275.9-7.9-20.5-16.7-95.3 54.4 97.5 11.6zm161.8-229-15 42.1 15.4 20.3 89.4-55.5zM83.3 148l30.4-91-80.3 59.8zm330.8 290.3 97.9-51.9-82.5-20.3zm-186.7-14.5-8.8-55.9-26.8-13.4-37.4 96.2zm55.4 10.5L250.9 512l127.2-50.1zm100.1 21.1-60.5-102-22.4 14.2 21.3 68.6zM131.3 69.7l49.5 98.3 25-20-40-83.8zm177.5 5L300 143l20.9 11.9 36-92.9zm114.8 218.1-57.9-4.7-12.9 31.2 98.3 35.2zm-297.8 49.7-40.3-61.3-31.6 100.9zM0 0v115.4l60.1-39.9zm0 512h114.8l-36.7-49zm512-12V394.1L453.3 430zM506.9 0H399.4l32.3 53zM0 252.9v143.7l41.8-5.1zm398.3-.7-22.4 29.7 118.9 2.9zm-13.2 3.3-28.2-22.2h-32.3l36.3 42.5zm126.9-6.9v-102l-42.9-10.5zm-128-76.2 19.4 53.3 52.5-92.9zM71.2 66.4 114.8 45l-77-17.8zm4.4 381.7-28.3-36.3-36.7 82.1zM505.8 15.2l-67.5 49.4 25.7 39.5zM161.7 320l-12.4-27.5-47.7-14.5 27.9 61.6zm304.5-201 45.8 20.3V47.5zm-217.9 21.4h34.8l12.9-62L238.8 90zM269.2 512h124.7l-4.4-43.9zm80.3-230.4-35.2-44.7-45.5 21.1 32.7 26.8zm51.7 179.2 99.8 40.3-55.8-66.8zM180.8 68.6l34.9 77.3 20.5-6.6-8.4-50.4zm54.7 326.2 10.6 104.5 28.6-64.6zm116.2-205.4 14.3 41 18.7 9.8-5.1-57zm-149.6-127L121.4 6.9l4.8 37zM110.8 0H20.5l84 31.9zM0 401.3V491l35.6-82.8zM402.3 512h90.6l-94.6-42.8zM251.6 260.9l-36.7-24 .4 40.7 19.8 30.8zM304 430.4l-12.1-59.2-19 .7 11.7 56.6zm-44-179.3 21.7-8.3-15.1-27.6zm40 38.5-40-25.8-15.4 46.4 27.9 2.2zm-83.6-59.5 37 25.4 2.6-57.4-24.2 7.6zM98.3 258.4l49.9 24.6-2.6-30.8zm168 114.3-33-2.9 37 40.2zm-3-174.2 25 36.3 18.7-9.1-19.8-20z"/></svg>