<svg xmlns="http://www.w3.org/2000/svg" xml:space="preserve" viewBox="0 0 1200 1200"><path fill="#222326" d="M600 1200C268.6 1200 0 931.4 0 600S268.6 0 600 0s600 268.6 600 600-268.6 600-600 600z"/><path fill="#FFCC01" d="M530.8 759.4c-17.6 0-34.4-3.5-49.8-9.8v42.5c15.8 4.8 32.5 7.4 49.8 7.4 51.5 0 97.8-22.8 129.3-58.9h-61.4c-19.9 12-43.1 18.8-67.9 18.8zM769.8 400.2c27.6 27.6 49.5 59.4 65.2 94h46c-1.2-3.1-2.4-6.1-3.7-9.1-18.2-43-44.3-81.7-77.4-114.9S728 310.9 685 292.7c-44.6-18.9-91.9-28.4-140.7-28.4-4.5 0-9.1.1-13.6.3v42.5c4.5-.2 9-.3 13.6-.3 85.2-.1 165.3 33.1 225.5 93.4z"/><path fill="#FFCC01" d="M601.1 339v43.6c44.5 11.4 85.2 34.5 118.5 67.8 15.8 15.8 29.2 33.2 40.3 51.9H808c-14.5-30-34.1-57.7-58.4-81.9-41.4-41.4-92.7-69.3-148.5-81.4zM536.1 893.3c-69.3 0-134.5-27-183.5-76s-76-114.2-76-183.5 27-134.5 76-183.5 114.2-76 183.5-76c7.9 0 15.8.4 23.6 1.1v-42.6c-7.8-.6-15.7-.9-23.6-.9-80.6 0-156.4 31.4-213.5 88.4-57 57-88.4 132.8-88.4 213.5 0 80.6 31.4 156.4 88.4 213.5 57 57 132.8 88.4 213.5 88.4 19.2 0 38-1.8 56.4-5.3v-43.3c-18.3 4.1-37.1 6.2-56.4 6.2z"/><path fill="#FFCC01" d="M559.6 817.1v41.6c51.9-5.2 100.1-27.9 137.4-65.3 15.9-15.9 29.1-33.6 39.4-52.8h-48.8c-29.4 41.2-75.4 69.9-128 76.5zM536.7 406.2c-60.6 0-117.6 23.6-160.4 66.4s-66.4 99.8-66.4 160.4c0 60.6 23.6 117.6 66.4 160.4 38.2 38.2 87.7 61.1 141 65.6v-41.6c-93.2-9.8-166-88.7-166-184.4 0-102.3 83.2-185.5 185.5-185.5 41.8 0 80.4 13.9 111.4 37.3v-49.5c-33.7-19-72-29.1-111.5-29.1z"/><path fill="#FFF" d="M513 699.3h-32l68.1-158.9h21.6l68.1 158.9h-32l-15-35.2H528l-15 35.2zm46.8-109.4-20.2 47H580l-20.2-47zM679.9 699.3h-32L716 540.4h21.6l68.1 158.9h-32l-15-35.2h-63.8l-15 35.2zm46.7-109.4-20.2 47h40.4l-20.2-47zM890.2 565.3c-15 0-27.5 5.3-37.7 15.9-10.1 10.6-15.2 23.5-15.2 38.6 0 15.4 5.2 28.4 15.7 38.8 10.4 10.4 23.3 15.7 38.6 15.7 18.6 0 33.6-7.3 44.9-22l21.1 18.8c-7.3 9.2-16.7 16.6-28.3 22.1s-24.4 8.3-38.5 8.3c-24.5 0-44.7-7.8-60.5-23.5-15.8-15.7-23.7-35.1-23.7-58.2 0-23.2 7.9-42.6 23.6-58.2 15.7-15.7 35.8-23.5 60.2-23.5 23.2 0 42.5 7.6 58.1 22.7l-19.7 20.9c-10.8-10.9-23.7-16.4-38.6-16.4zM967.7 538.1h10.1v2.4H974v11.6h-2.7v-11.6h-3.7l.1-2.4zM981.8 538.1l5.1 8.4 5.1-8.4h1.9v14h-2.7v-7.8l-3.4 5.5H986l-3.4-5.5v7.8h-2.7v-14h1.9z"/></svg>